<svg width="14" height="14" viewBox="0 0 14 14" fill="none" xmlns="http://www.w3.org/2000/svg">
<path fill-rule="evenodd" clip-rule="evenodd" d="M10.5045 10.8679C9.71602 11.5787 8.82106 12.016 7.81967 12.1798C6.81828 12.3437 5.8372 12.2206 4.87641 11.8107C3.91562 11.3734 3.15667 10.7265 2.59957 9.87C2.04247 9.01347 1.75928 8.05681 1.75 7H2.62002C2.62901 7.92008 2.88044 8.74454 3.37432 9.47337C3.8682 10.2022 4.54116 10.7351 5.3932 11.0721C6.24523 11.4001 7.09945 11.464 7.95583 11.2637C8.81222 11.0634 9.55304 10.6261 10.1783 9.95177H8.91416C8.78713 9.95177 8.68288 9.91081 8.60139 9.82889C8.51989 9.74697 8.47915 9.6445 8.47915 9.52147C8.47915 9.39844 8.51989 9.29597 8.60139 9.21405C8.68288 9.13213 8.78713 9.0865 8.91416 9.07717H10.9396C11.0573 9.08621 11.1571 9.13184 11.2388 9.21405C11.3206 9.29626 11.366 9.39655 11.375 9.51491V11.551C11.366 11.6787 11.3206 11.7835 11.2388 11.8654C11.1571 11.9473 11.0551 11.9883 10.933 11.9883C10.8109 11.9883 10.709 11.9473 10.6272 11.8654C10.5454 11.7835 10.5047 11.6787 10.505 11.551L10.5045 10.8679Z" fill="#A8ABB2"/>
<path fill-rule="evenodd" clip-rule="evenodd" d="M3.82171 4.04779H5.08584C5.21287 4.04779 5.31712 4.08875 5.39861 4.17067C5.48011 4.25259 5.52085 4.35506 5.52085 4.47809C5.52085 4.60112 5.48011 4.70359 5.39861 4.78551C5.31712 4.86743 5.21287 4.91306 5.08584 4.92239H3.06044C2.9427 4.91335 2.84294 4.86773 2.76116 4.78551C2.67938 4.7033 2.63399 4.60301 2.625 4.48465V2.44858C2.63399 2.32089 2.67938 2.21608 2.76116 2.13416C2.84294 2.05224 2.94488 2.01128 3.06697 2.01128C3.18906 2.01128 3.291 2.05224 3.37278 2.13416C3.45456 2.21608 3.49531 2.32089 3.49502 2.44858V3.13208C4.28354 2.42132 5.1785 1.98402 6.17989 1.82018C7.18128 1.65634 8.16686 1.77937 9.13664 2.18926C10.0974 2.62656 10.8542 3.27348 11.407 4.13C11.9597 4.98653 12.2407 5.94319 12.25 7H11.38C11.371 6.07992 11.1196 5.25546 10.6257 4.52663C10.1318 3.7978 9.45884 3.26488 8.6068 2.92786C7.75477 2.59989 6.90055 2.53604 6.04417 2.73633C5.18778 2.93661 4.44696 3.37347 3.82171 4.04779Z" fill="#A8ABB2"/>
</svg>
