<svg width="100%" height="100%" viewBox="0 0 360 81" fill="none" xmlns="http://www.w3.org/2000/svg">
<rect width="360" height="81" fill="url(#paint0_linear_11519_116851)"/>
<path d="M-15 -19H11L-32 100H-58L-15 -19Z" fill="white" fill-opacity="0.05"/>
<path d="M36 -19H62L19 100H-7L36 -19Z" fill="white" fill-opacity="0.05"/>
<path d="M87 -19H113L70 100H44L87 -19Z" fill="white" fill-opacity="0.05"/>
<path d="M138 -19H164L121 100H95L138 -19Z" fill="white" fill-opacity="0.05"/>
<path d="M189 -19H215L172 100H146L189 -19Z" fill="white" fill-opacity="0.05"/>
<path d="M240 -19H266L223 100H197L240 -19Z" fill="white" fill-opacity="0.05"/>
<path d="M291 -19H317L274 100H248L291 -19Z" fill="white" fill-opacity="0.05"/>
<path d="M342 -19H368L325 100H299L342 -19Z" fill="white" fill-opacity="0.05"/>
<path d="M393 -19H419L376 100H350L393 -19Z" fill="white" fill-opacity="0.05"/>
<path d="M101.533 27.7675H125.615V31.6768H116.078V53.0006H111.07V31.6768H101.533V27.7675Z" fill="white" fill-opacity="0.8"/>
<path d="M127.695 53.0006H122.429L133.955 27.7675H139.589L151.078 53.0006H145.849L143.234 46.8878H130.31L127.695 53.0006ZM135.686 34.3778L131.819 43.3338H141.688L137.858 34.3778C137.527 33.596 137.085 32.4587 136.79 31.4636H136.717C136.422 32.4587 135.98 33.596 135.686 34.3778Z" fill="white" fill-opacity="0.8"/>
<path d="M152.812 45.0042V41.2015H167.394V45.0042H152.812Z" fill="white" fill-opacity="0.8"/>
<path d="M172.479 27.7675H185.736C191.591 27.7675 195.31 30.8239 195.31 35.6217C195.31 40.5617 191.48 43.6892 185.441 43.6892H177.487V53.0006H172.479V27.7675ZM177.487 40.0642H184.705C187.982 40.0642 190.007 38.4294 190.007 35.7283C190.007 33.0273 188.019 31.4281 184.705 31.4281H177.487V40.0642Z" fill="white" fill-opacity="0.8"/>
<path d="M204.44 53.5337C199.873 53.5337 196.964 51.5079 196.964 48.2028C196.964 46.5324 197.701 45.1108 199.137 44.2223C200.463 43.4049 202.267 42.8718 205.765 42.552L212.541 42.0189V41.6279C212.541 39.0335 210.847 37.7896 207.717 37.7896C204.624 37.7896 202.746 38.9625 202.451 41.0593H197.554C197.996 37.1855 201.862 34.6977 207.68 34.6977C214.198 34.6977 217.254 37.1144 217.254 42.2321V47.2787C217.254 49.9442 217.401 51.579 217.733 53.0006H213.019C212.835 52.0766 212.762 50.9038 212.725 49.7665C211.436 52.1477 208.564 53.5337 204.44 53.5337ZM206.023 50.4773C209.926 50.4773 212.614 48.5582 212.614 45.5373V44.5777L206.281 45.1464C203.003 45.5017 201.825 46.3192 201.825 47.954C201.825 49.5533 203.372 50.4773 206.023 50.4773Z" fill="white" fill-opacity="0.8"/>
<path d="M227.051 35.2308V39.922C228.045 36.8301 230.513 34.7688 233.937 34.7688C234.453 34.7688 234.821 34.7688 235.263 34.8399V39.0691C234.747 38.998 234.342 38.9625 233.79 38.9625C231.654 38.9625 230.255 39.5311 229.224 40.4907C227.788 41.8767 227.456 43.9025 227.456 46.0348V53.0006H222.78V35.2308H227.051Z" fill="white" fill-opacity="0.8"/>
<path d="M259.329 53.0006H253.806L247.767 44.5066L243.458 47.8829V53.0006H238.782V27.2344H243.458V43.3694L252.885 35.2308H258.924L251.265 41.8767L259.329 53.0006Z" fill="white" fill-opacity="0.8"/>
<defs>
<linearGradient id="paint0_linear_11519_116851" x1="19.0588" y1="-79.3125" x2="400.317" y2="30.6399" gradientUnits="userSpaceOnUse">
<stop stop-color="#A562FF"/>
<stop offset="0.46331" stop-color="#7D30E5"/>
<stop offset="1" stop-color="#A562FF"/>
</linearGradient>
</defs>
</svg>