<svg width="12" height="12" viewBox="0 0 12 12" fill="none" xmlns="http://www.w3.org/2000/svg">
<path fill-rule="evenodd" clip-rule="evenodd" d="M8.10613 2.02401H3.89716C3.61361 2.02401 3.37065 2.2268 3.31995 2.50578L2.94667 4.55989H9.05663L8.68335 2.50578C8.63265 2.22681 8.38968 2.02401 8.10613 2.02401ZM9.81553 4.55989L9.41798 2.37228C9.30276 1.73824 8.75056 1.27734 8.10613 1.27734H3.89716C3.25274 1.27734 2.70054 1.73824 2.58531 2.37228L2.18777 4.55989L2.18505 4.57487H2.17318C1.4368 4.57487 0.839844 5.17182 0.839844 5.9082V7.97825C0.839844 8.34644 1.13832 8.64492 1.50651 8.64492H1.76172V10.0577C1.76172 10.4259 2.0602 10.7243 2.42839 10.7243H3.5566C3.92479 10.7243 4.22327 10.4259 4.22327 10.0577V8.64492H7.77865V10.0577C7.77865 10.4259 8.07712 10.7243 8.44531 10.7243H9.57353C9.94172 10.7243 10.2402 10.4259 10.2402 10.0577V8.64492H10.4956C10.8638 8.64492 11.1623 8.34645 11.1623 7.97826V5.9082C11.1623 5.17182 10.5653 4.57487 9.82894 4.57487H9.81825L9.81553 4.55989ZM9.82894 5.32154H2.17318C1.84917 5.32154 1.58651 5.5842 1.58651 5.9082V7.89825H10.4156V5.9082C10.4156 5.5842 10.1529 5.32154 9.82894 5.32154ZM8.52531 9.97767V8.65292H9.49353V9.97767H8.52531ZM2.50839 8.65292V9.97767H3.4766V8.65292H2.50839ZM3.07329 7.05218C3.32591 7.05218 3.53069 6.84739 3.53069 6.59477C3.53069 6.34216 3.32591 6.13737 3.07329 6.13737C2.82067 6.13737 2.61589 6.34216 2.61589 6.59477C2.61589 6.84739 2.82067 7.05218 3.07329 7.05218ZM9.38616 6.59477C9.38616 6.84739 9.18137 7.05218 8.92876 7.05218C8.67614 7.05218 8.47135 6.84739 8.47135 6.59477C8.47135 6.34216 8.67614 6.13737 8.92876 6.13737C9.18137 6.13737 9.38616 6.34216 9.38616 6.59477ZM4.83464 6.23539C4.62845 6.23539 4.4613 6.40254 4.4613 6.60872C4.4613 6.81491 4.62845 6.98206 4.83464 6.98206H7.16712C7.37331 6.98206 7.54045 6.81491 7.54045 6.60872C7.54045 6.40254 7.37331 6.23539 7.16712 6.23539H4.83464Z" fill="#E6A23C"/>
</svg>
