<svg width="12" height="12" viewBox="0 0 12 12" fill="none" xmlns="http://www.w3.org/2000/svg">
<path fill-rule="evenodd" clip-rule="evenodd" d="M1.49999 4.5V10.5H10.5V2.25H8.99999V2.625C8.99999 2.73438 8.96483 2.82422 8.89452 2.89453C8.82421 2.96484 8.73437 3 8.62499 3C8.51562 3 8.42577 2.96484 8.35546 2.89453C8.28515 2.82422 8.24999 2.73438 8.24999 2.625V2.25H3.74999V2.625C3.74999 2.73438 3.71483 2.82422 3.64452 2.89453C3.57421 2.96484 3.48437 3 3.37499 3C3.26562 3 3.17577 2.96484 3.10546 2.89453C3.03515 2.82422 2.99999 2.73438 2.99999 2.625V2.25H1.49999V3.75H10.5V4.5H1.49999ZM3.75 1.5H8.25V1.125C8.25 1.01563 8.28516 0.925781 8.35547 0.855469C8.42578 0.785156 8.51563 0.75 8.625 0.75C8.73437 0.75 8.82422 0.785156 8.89453 0.855469C8.96484 0.925781 9 1.01563 9 1.125V1.5H10.875C10.9844 1.5 11.0742 1.53516 11.1445 1.60547C11.2148 1.67578 11.25 1.76562 11.25 1.875V10.875C11.25 10.9844 11.2148 11.0742 11.1445 11.1445C11.0742 11.2148 10.9844 11.25 10.875 11.25H1.125C1.01563 11.25 0.925781 11.2148 0.855469 11.1445C0.785156 11.0742 0.75 10.9844 0.75 10.875V1.875C0.75 1.76562 0.785156 1.67578 0.855469 1.60547C0.925781 1.53516 1.01563 1.5 1.125 1.5H3V1.125C3 1.01563 3.03516 0.925781 3.10547 0.855469C3.17578 0.785156 3.26563 0.75 3.375 0.75C3.48437 0.75 3.57422 0.785156 3.64453 0.855469C3.71484 0.925781 3.75 1.01563 3.75 1.125V1.5Z" fill="#67C23A"/>
<path fill-rule="evenodd" clip-rule="evenodd" d="M4.0864 5.45456C4.23284 5.30811 4.47028 5.30811 4.61673 5.45456L5.99969 6.83753L7.38266 5.45456C7.52911 5.30811 7.76655 5.30811 7.91299 5.45456C8.05944 5.60101 8.05944 5.83845 7.91299 5.98489L6.53002 7.36786L7.91299 8.75083C8.05944 8.89727 8.05944 9.13471 7.91299 9.28116C7.76655 9.4276 7.52911 9.4276 7.38266 9.28116L5.99969 7.89819L4.61673 9.28116C4.47028 9.4276 4.23284 9.4276 4.0864 9.28116C3.93995 9.13471 3.93995 8.89727 4.0864 8.75083L5.46936 7.36786L4.0864 5.98489C3.93995 5.83845 3.93995 5.60101 4.0864 5.45456Z" fill="#67C23A"/>
</svg>
